
<svg width="164" height="148" viewBox="0 0 164 148" fill="none" xmlns="http://www.w3.org/2000/svg">
<path d="M16.7695 55.022C22.1406 45.2197 28.3222 35.8839 35.2495 27.112C37.1974 24.4854 39.4461 22.0959 41.9495 19.992C44.9535 17.8126 48.219 16.0186 51.6695 14.652C62.6754 9.84984 73.924 5.62411 85.3695 1.99204C89.2495 0.75204 93.2995 -0.427956 97.3695 0.152044C100.88 0.652044 104.06 2.43204 107.14 4.15204L124.14 13.832C125.741 14.6465 127.222 15.6798 128.54 16.902C129.646 18.1096 130.594 19.4538 131.36 20.902C142.22 39.642 153.09 58.402 162.73 77.802C163.339 78.7038 163.692 79.7544 163.75 80.8413C163.808 81.9282 163.569 83.0104 163.06 83.972C158.944 94.858 154.172 105.484 148.77 115.792L144.95 114.792C147.207 108.193 149.12 101.48 150.68 94.682C150.87 94.1109 150.898 93.498 150.76 92.912C150.457 92.2348 149.936 91.6785 149.28 91.332L122.16 72.822C124.461 86.7934 122.316 101.135 116.03 113.822L16.7695 55.022Z" fill="#ED2F2F"/>
<path d="M152.56 91.1017C152.548 91.059 152.524 91.0209 152.49 90.9917C135.59 77.1817 128.56 74.2417 120.59 65.2917L117.11 48.6817C117.1 48.6375 117.075 48.5981 117.04 48.5698C117.005 48.5415 116.961 48.5261 116.915 48.5261C116.87 48.5261 116.826 48.5415 116.791 48.5698C116.755 48.5981 116.73 48.6375 116.72 48.6817C116.92 57.8417 113.95 75.9717 110.49 90.0117C108.49 88.0117 106.88 85.5417 102.73 81.7917C88.3603 68.7917 72.1403 60.4017 52.9903 57.3617C54.4503 56.5217 55.1103 56.1117 56.5803 55.2717C46.0803 50.8217 40.8703 49.3817 29.6803 47.2717C27.8003 46.9017 18.1003 47.5917 14.5703 49.5217L107.48 100.712C106.802 102.896 105.943 105.02 104.91 107.062L116.02 113.742C122.307 101.054 124.451 86.7131 122.15 72.7417L149.27 91.2517C149.926 91.5982 150.447 92.1545 150.75 92.8317C150.889 93.4177 150.861 94.0306 150.67 94.6017C149.11 101.4 147.198 108.112 144.94 114.712L148.76 115.712C150.56 109.562 156.5 83.4917 156.03 84.4817C155.06 86.5717 152.56 91.1017 152.56 91.1017Z" fill="#DD281F"/>
<path d="M18.87 46.9928C9.05999 48.1028 1.99 58.3628 0 67.9928C0.83884 66.933 2.02311 66.2013 3.34626 65.9253C4.66941 65.6493 6.04744 65.8467 7.24 66.4828C3.68 71.8028 5.61 79.3728 9.93 84.1128C14.25 88.8528 20.4 91.4028 26.33 93.8328L45.33 101.583C44.1093 100.306 43.4255 98.6092 43.42 96.8428C62.42 105.543 74.64 126.843 95.02 131.473L92.63 128.173C95.8223 127.971 99.0043 128.702 101.788 130.277C104.572 131.852 106.838 134.203 108.31 137.043C108.765 136.674 109.307 136.426 109.883 136.321C110.46 136.217 111.053 136.259 111.609 136.445C112.165 136.63 112.666 136.952 113.064 137.382C113.463 137.811 113.747 138.335 113.89 138.903C121.48 135.583 125.18 126.143 123.46 118.043C121.74 109.943 115.57 103.333 108.33 99.3028L115.33 97.6328C105.98 94.7928 99.33 86.7628 92.12 80.2028C79.1179 68.4792 63.0048 60.763 45.72 57.9828L49.66 55.7328C40.25 51.7328 35.76 49.4828 25.72 47.5628C23.4657 47.1134 21.1676 46.9222 18.87 46.9928V46.9928Z" fill="#EDEDED"/>
<path d="M108.45 99.2326C112.38 102.323 117.17 109.763 117.29 112.333C117.37 115.623 115.52 122.333 104.51 121.653C95.0997 121.103 84.8597 115.393 77.8797 109.073L82.2097 106.733C70.2097 105.683 64.8797 103.813 56.5197 100.923C55.1997 100.463 44.8397 96.4526 43.5197 96.8726H43.4297H43.5097H43.4297L56.7697 105.443C69.1097 115.303 79.7697 128.063 94.9897 131.503L92.5997 128.203C95.792 128.001 98.9739 128.732 101.758 130.307C104.542 131.882 106.808 134.233 108.28 137.073C108.735 136.704 109.276 136.456 109.853 136.351C110.429 136.247 111.023 136.289 111.579 136.474C112.135 136.66 112.635 136.982 113.034 137.412C113.433 137.841 113.716 138.364 113.86 138.933C121.45 135.613 125.15 126.173 123.43 118.073C121.83 110.503 115.52 103.263 108.9 99.1925" fill="#DDDDDD"/>
<path d="M146.861 112.852C149.231 112.272 155.241 113.572 157.111 115.142C158.911 116.8 160.366 118.799 161.391 121.022L158.511 120.822C161.581 123.492 162.911 127.822 162.641 131.872C162.209 135.932 160.806 139.828 158.551 143.232C158.411 142.232 158.281 141.232 158.141 140.282C155.833 143.837 152.226 146.349 148.091 147.282C146.034 147.712 143.902 147.608 141.898 146.979C139.893 146.351 138.083 145.219 136.641 143.692L139.321 143.042C135.583 141.3 132.543 138.346 130.695 134.659C128.847 130.972 128.299 126.769 129.141 122.732C130.578 125.535 132.963 127.739 135.871 128.952C135.268 128.266 134.829 127.453 134.588 126.572C134.348 125.692 134.311 124.768 134.481 123.872C134.609 124.157 134.827 124.391 135.102 124.539C135.376 124.688 135.692 124.741 136.001 124.692C135.596 123.36 135.553 121.944 135.874 120.59C136.196 119.235 136.871 117.99 137.831 116.982C139.792 114.988 142.32 113.647 145.071 113.142" fill="#EDEDED"/>
<path d="M158.51 120.822L161.39 121.022C160.365 118.799 158.911 116.8 157.11 115.142C155.93 114.142 153.11 113.262 150.55 112.892C150.654 112.956 150.754 113.026 150.85 113.102L150.32 112.852C152.805 114.596 154.58 117.177 155.32 120.122C155.658 122.065 155.251 124.065 154.18 125.722C155.005 125.583 155.77 125.203 156.378 124.63C156.987 124.057 157.412 123.316 157.6 122.502C157.885 123.677 158.033 124.882 158.04 126.092C158.042 128.739 157.353 131.342 156.04 133.642C154.15 135.642 150.93 136.782 148.28 137.452C149.664 137.75 151.075 137.904 152.49 137.912C149.672 140.262 146.104 141.525 142.435 141.47C138.765 141.415 135.237 140.046 132.49 137.612C134.252 139.981 136.594 141.858 139.29 143.062L136.61 143.712C138.053 145.239 139.863 146.37 141.867 146.999C143.872 147.627 146.004 147.732 148.06 147.302C152.195 146.369 155.802 143.857 158.11 140.302C158.25 141.302 158.38 142.302 158.52 143.252C160.78 139.839 162.183 135.932 162.61 131.862C162.91 127.802 161.58 123.492 158.51 120.822Z" fill="#DDDDDD"/>
<rect x="74.4954" y="25.9862" width="31.1319" height="30.6217" rx="15.3109" transform="rotate(28.2836 74.4954 25.9862)" fill="#EDEDED" stroke="white" stroke-width="1.4563"/>
<mask id="mask0_192_1225" style="mask-type:alpha" maskUnits="userSpaceOnUse" x="64" y="30" width="34" height="34">
<rect x="74.1992" y="25" width="32.5882" height="32.078" rx="16.039" transform="rotate(28.2836 74.1992 25)" fill="white"/>
</mask>
<g mask="url(#mask0_192_1225)">
<path d="M86.9131 52.5011C86.3505 53.5466 85.5903 54.3753 84.6324 54.9871C83.6837 55.5818 82.5615 55.8731 81.2657 55.8611C79.9698 55.849 78.5732 55.4401 77.0758 54.6344L74.3073 53.1447L70.8211 59.6237L66.3548 57.2206L76.0664 39.1719L83.3011 43.0647C84.7638 43.8517 85.8663 44.7654 86.6087 45.8059C87.3512 46.8464 87.7397 47.9395 87.7743 49.0854C87.8089 50.2313 87.5218 51.3698 86.9131 52.5011ZM78.6177 50.9551C79.4709 51.4142 80.2125 51.559 80.8425 51.3896C81.4725 51.2203 81.9812 50.7756 82.3686 50.0558C82.7559 49.3359 82.8467 48.6664 82.6409 48.0473C82.4352 47.4282 81.9057 46.8891 81.0525 46.43L78.6235 45.1231L76.1887 49.6481L78.6177 50.9551Z" fill="#0A0A0A"/>
<path d="M92.5925 42.1658L78.5273 34.5977L76.965 37.5013L91.0301 45.0694L92.5925 42.1658Z" fill="#E50913"/>
</g>
</svg>

